<svg xmlns="http://www.w3.org/2000/svg" version="1.1" viewBox="0 0 250 250" xml:space="preserve">
<!--Shield background-->
  <path style="fill:#968e07" d="M125 30 31.9 63.2l14.2 123.1L125 230l78.9-43.7 14.2-123.1z"/>
  <path style="fill:#5b4677" d="M125 30v22.2-.1V230l78.9-43.7 14.2-123.1z"/>
<!--Darker shade for Top Border-->
  <path d="M31.9 63.2 125 30l93.1 33.2" fill="none" stroke="#61417d" stroke-width="4"/>
<!--Embedded share icon (scaled and centered)-->
  <g transform="translate(55, 55) scale(6)">
<!--Material "share" icon paths-->
    <path d="M0 0h24v24H0z" fill="none"/>
    <path d="M18 16.08c-.76 0-1.44.3-1.96.77L8.91 12.7c.05-.23.09-.46.09-.7s-.04-.47-.09-.7l7.05-4.11c.54.5 1.25.81 2.04.81 
             1.66 0 3-1.34 3-3s-1.34-3-3-3-3 1.34-3 3c0 .24.04.47.09.7L8.04 9.81C7.5 9.31 6.79 9 6 9c-1.66 0-3 1.34-3 3s1.34 3 3 3
             c.79 0 1.5-.31 2.04-.81l7.12 4.16c-.05.21-.08.43-.08.65 0 1.61 1.31 2.92 2.92 2.92s2.92-1.31 2.92-2.92
             -1.31-2.92-2.92-2.92M18 4c.55 0 1 .45 1 1s-.45 1-1 1-1-.45-1-1 .45-1 1-1M6 13c-.55 0-1-.45-1-1s.45-1 
             1-1 1 .45 1 1-.45 1-1 1m12 7.02c-.55 0-1-.45-1-1s.45-1 1-1 1 .45 1 1-.45 1-1 1" fill="#fff"/>
  </g>
</svg>
